{
	"asset":{
		"generator":"Khronos glTF Blender I/O v3.5.30",
		"version":"2.0"
	},
	"scene":0,
	"scenes":[
		{
			"name":"Scene",
			"nodes":[
				0,
				1,
				2,
				3,
				4,
				5
			]
		}
	],
	"nodes":[
		{
			"mesh":0,
			"name":"Plane",
			"scale":[
				3,
				1,
				9.899999618530273
			]
		},
		{
			"mesh":1,
			"name":"Cube",
			"translation":[
				0,
				1.7184779644012451,
				0
			]
		},
		{
			"mesh":2,
			"name":"Cylinder",
			"rotation":[
				0,
				0,
				-0.7071068286895752,
				0.7071068286895752
			],
			"scale":[
				0.5,
				0.15000000596046448,
				0.5
			],
			"translation":[
				0.9445972442626953,
				0.5225054025650024,
				1.7861318588256836
			]
		},
		{
			"mesh":3,
			"name":"Cylinder.001",
			"rotation":[
				0,
				0,
				-0.7071068286895752,
				0.7071068286895752
			],
			"scale":[
				0.5,
				0.15000000596046448,
				0.5
			],
			"translation":[
				0.9445972442626953,
				0.5225054025650024,
				-0.3659186363220215
			]
		},
		{
			"mesh":4,
			"name":"Cylinder.002",
			"rotation":[
				0,
				0,
				-0.7071068286895752,
				0.7071068286895752
			],
			"scale":[
				0.5,
				0.15000000596046448,
				0.5
			],
			"translation":[
				-0.9497466683387756,
				0.5225054025650024,
				-0.3659186363220215
			]
		},
		{
			"mesh":5,
			"name":"Cylinder.003",
			"rotation":[
				0,
				0,
				-0.7071068286895752,
				0.7071068286895752
			],
			"scale":[
				0.5,
				0.15000000596046448,
				0.5
			],
			"translation":[
				-0.9497466683387756,
				0.5225054025650024,
				1.7861318588256836
			]
		}
	],
	"meshes":[
		{
			"name":"Plane",
			"primitives":[
				{
					"attributes":{
						"POSITION":0,
						"TEXCOORD_0":1,
						"NORMAL":2
					},
					"indices":3
				}
			]
		},
		{
			"name":"Cube.001",
			"primitives":[
				{
					"attributes":{
						"POSITION":4,
						"TEXCOORD_0":5,
						"NORMAL":6
					},
					"indices":7
				}
			]
		},
		{
			"name":"Cylinder",
			"primitives":[
				{
					"attributes":{
						"POSITION":8,
						"TEXCOORD_0":9,
						"NORMAL":10
					},
					"indices":11
				}
			]
		},
		{
			"name":"Cylinder.001",
			"primitives":[
				{
					"attributes":{
						"POSITION":12,
						"TEXCOORD_0":13,
						"NORMAL":14
					},
					"indices":11
				}
			]
		},
		{
			"name":"Cylinder.002",
			"primitives":[
				{
					"attributes":{
						"POSITION":15,
						"TEXCOORD_0":16,
						"NORMAL":17
					},
					"indices":11
				}
			]
		},
		{
			"name":"Cylinder.003",
			"primitives":[
				{
					"attributes":{
						"POSITION":18,
						"TEXCOORD_0":19,
						"NORMAL":20
					},
					"indices":11
				}
			]
		}
	],
	"accessors":[
		{
			"bufferView":0,
			"componentType":5126,
			"count":4,
			"max":[
				1,
				0,
				1
			],
			"min":[
				-1,
				0,
				-1
			],
			"type":"VEC3"
		},
		{
			"bufferView":1,
			"componentType":5126,
			"count":4,
			"type":"VEC2"
		},
		{
			"bufferView":2,
			"componentType":5126,
			"count":4,
			"type":"VEC3"
		},
		{
			"bufferView":3,
			"componentType":5123,
			"count":6,
			"type":"SCALAR"
		},
		{
			"bufferView":4,
			"componentType":5126,
			"count":62,
			"max":[
				1.0805928707122803,
				0.3545377850532532,
				2.565431594848633
			],
			"min":[
				-1,
				-1,
				-1
			],
			"type":"VEC3"
		},
		{
			"bufferView":5,
			"componentType":5126,
			"count":62,
			"type":"VEC2"
		},
		{
			"bufferView":6,
			"componentType":5126,
			"count":62,
			"type":"VEC3"
		},
		{
			"bufferView":7,
			"componentType":5123,
			"count":108,
			"type":"SCALAR"
		},
		{
			"bufferView":8,
			"componentType":5126,
			"count":192,
			"max":[
				1,
				1,
				1
			],
			"min":[
				-1,
				-1,
				-1
			],
			"type":"VEC3"
		},
		{
			"bufferView":9,
			"componentType":5126,
			"count":192,
			"type":"VEC2"
		},
		{
			"bufferView":10,
			"componentType":5126,
			"count":192,
			"type":"VEC3"
		},
		{
			"bufferView":11,
			"componentType":5123,
			"count":372,
			"type":"SCALAR"
		},
		{
			"bufferView":12,
			"componentType":5126,
			"count":192,
			"max":[
				1,
				1,
				1
			],
			"min":[
				-1,
				-1,
				-1
			],
			"type":"VEC3"
		},
		{
			"bufferView":13,
			"componentType":5126,
			"count":192,
			"type":"VEC2"
		},
		{
			"bufferView":14,
			"componentType":5126,
			"count":192,
			"type":"VEC3"
		},
		{
			"bufferView":15,
			"componentType":5126,
			"count":192,
			"max":[
				1,
				1,
				1
			],
			"min":[
				-1,
				-1,
				-1
			],
			"type":"VEC3"
		},
		{
			"bufferView":16,
			"componentType":5126,
			"count":192,
			"type":"VEC2"
		},
		{
			"bufferView":17,
			"componentType":5126,
			"count":192,
			"type":"VEC3"
		},
		{
			"bufferView":18,
			"componentType":5126,
			"count":192,
			"max":[
				1,
				1,
				1
			],
			"min":[
				-1,
				-1,
				-1
			],
			"type":"VEC3"
		},
		{
			"bufferView":19,
			"componentType":5126,
			"count":192,
			"type":"VEC2"
		},
		{
			"bufferView":20,
			"componentType":5126,
			"count":192,
			"type":"VEC3"
		}
	],
	"bufferViews":[
		{
			"buffer":0,
			"byteLength":48,
			"byteOffset":0,
			"target":34962
		},
		{
			"buffer":0,
			"byteLength":32,
			"byteOffset":48,
			"target":34962
		},
		{
			"buffer":0,
			"byteLength":48,
			"byteOffset":80,
			"target":34962
		},
		{
			"buffer":0,
			"byteLength":12,
			"byteOffset":128,
			"target":34963
		},
		{
			"buffer":0,
			"byteLength":744,
			"byteOffset":140,
			"target":34962
		},
		{
			"buffer":0,
			"byteLength":496,
			"byteOffset":884,
			"target":34962
		},
		{
			"buffer":0,
			"byteLength":744,
			"byteOffset":1380,
			"target":34962
		},
		{
			"buffer":0,
			"byteLength":216,
			"byteOffset":2124,
			"target":34963
		},
		{
			"buffer":0,
			"byteLength":2304,
			"byteOffset":2340,
			"target":34962
		},
		{
			"buffer":0,
			"byteLength":1536,
			"byteOffset":4644,
			"target":34962
		},
		{
			"buffer":0,
			"byteLength":2304,
			"byteOffset":6180,
			"target":34962
		},
		{
			"buffer":0,
			"byteLength":744,
			"byteOffset":8484,
			"target":34963
		},
		{
			"buffer":0,
			"byteLength":2304,
			"byteOffset":9228,
			"target":34962
		},
		{
			"buffer":0,
			"byteLength":1536,
			"byteOffset":11532,
			"target":34962
		},
		{
			"buffer":0,
			"byteLength":2304,
			"byteOffset":13068,
			"target":34962
		},
		{
			"buffer":0,
			"byteLength":2304,
			"byteOffset":15372,
			"target":34962
		},
		{
			"buffer":0,
			"byteLength":1536,
			"byteOffset":17676,
			"target":34962
		},
		{
			"buffer":0,
			"byteLength":2304,
			"byteOffset":19212,
			"target":34962
		},
		{
			"buffer":0,
			"byteLength":2304,
			"byteOffset":21516,
			"target":34962
		},
		{
			"buffer":0,
			"byteLength":1536,
			"byteOffset":23820,
			"target":34962
		},
		{
			"buffer":0,
			"byteLength":2304,
			"byteOffset":25356,
			"target":34962
		}
	],
	"buffers":[
		{
			"byteLength":27660,
			"uri":"data:application/octet-stream;base64,"
		}
	]
}
